# xmcd CD database file
#
# Track frame offsets:
#	150
#	14150
#	31337
#	49257
#	60842
#	79540
#	97955
#	123695
#	138047
#	153442
#	169197
#	191972
#	222712
#
# Disc length: 3223 seconds
#
# Revision: 3
# Processed by: cddbd v1.5.1PL0 Copyright (c) Steve Scherf et al.
# Submitted via: CDex 1.51
#
DISCID=b40c950d
DTITLE=Therapy? - I want my money back (Boot)
DYEAR=1992
DGENRE=Alternative
TTITLE0=NAUSEA
TTITLE1=PERVERSONALITY
TTITLE2=INNOCENT X
TTITLE3=AUTO SURGERY
TTITLE4=FANTASY BAG
TTITLE5=DISGRACELANDS
TTITLE6=NECK FREAK
TTITLE7=TOTALLY RANDOM MAN
TTITLE8=ACCELERATOR
TTITLE9=TEETHGRINDER
TTITLE10=MEAT ABSTRACT
TTITLE11=VIOLENCE CARRIED AWAY
TTITLE12=POTATOE JUNKIE
EXTD=recorded at the London Astoria 27/11/1992 YEAR: 1992
EXTT0=
EXTT1=
EXTT2=
EXTT3=
EXTT4=
EXTT5=
EXTT6=
EXTT7=
EXTT8=
EXTT9=
EXTT10=
EXTT11=
EXTT12=
PLAYORDER=
